<mxfile host="Electron" modified="2024-04-28T08:09:30.371Z" agent="Mozilla/5.0 (Windows NT 10.0; Win64; x64) AppleWebKit/537.36 (KHTML, like Gecko) draw.io/22.0.2 Chrome/114.0.5735.289 Electron/25.8.4 Safari/537.36" etag="_RswMu5jA23ncttvf9eK" version="22.0.2" type="device">
  <diagram name="第 1 页" id="TXvhX6VAukvptAocqNGN">
    <mxGraphModel dx="2375" dy="902" grid="1" gridSize="10" guides="1" tooltips="1" connect="1" arrows="1" fold="1" page="1" pageScale="1" pageWidth="827" pageHeight="1169" math="0" shadow="0">
      <root>
        <mxCell id="0" />
        <mxCell id="1" parent="0" />
        <mxCell id="mOLojI1wZqAIwk1azhFG-13" value="A1" style="rounded=0;whiteSpace=wrap;html=1;fillColor=#fff2cc;strokeColor=#d6b656;shadow=0;glass=0;fillStyle=zigzag-line;fontStyle=1" parent="1" vertex="1">
          <mxGeometry x="-78.19" y="343" width="30" height="20" as="geometry" />
        </mxCell>
        <mxCell id="mOLojI1wZqAIwk1azhFG-14" value="A1" style="rounded=0;whiteSpace=wrap;html=1;fillColor=#fff2cc;strokeColor=#d6b656;fontStyle=1" parent="1" vertex="1">
          <mxGeometry x="-272.19" y="343" width="30" height="20" as="geometry" />
        </mxCell>
        <mxCell id="mOLojI1wZqAIwk1azhFG-15" value="&lt;font style=&quot;font-size: 15px;&quot;&gt;Overlap&lt;br&gt;&lt;/font&gt;" style="text;html=1;strokeColor=none;fillColor=none;align=center;verticalAlign=middle;whiteSpace=wrap;rounded=0;fontStyle=1" parent="1" vertex="1">
          <mxGeometry x="279" y="341" width="117.75" height="30" as="geometry" />
        </mxCell>
        <mxCell id="mOLojI1wZqAIwk1azhFG-16" value="&lt;font style=&quot;font-size: 15px;&quot;&gt;Operator&lt;/font&gt;" style="text;html=1;strokeColor=none;fillColor=none;align=center;verticalAlign=middle;whiteSpace=wrap;rounded=0;fontStyle=1" parent="1" vertex="1">
          <mxGeometry x="-242.19" y="338" width="100" height="30" as="geometry" />
        </mxCell>
        <mxCell id="aFEut-Nw3Kqnz-RKJ25N-1" value="" style="rounded=0;whiteSpace=wrap;html=1;fontStyle=1" parent="1" vertex="1">
          <mxGeometry x="-80" y="425.81" width="910" height="260.19" as="geometry" />
        </mxCell>
        <mxCell id="aFEut-Nw3Kqnz-RKJ25N-3" value="&lt;font style=&quot;font-size: 15px;&quot;&gt;Model A&lt;/font&gt;" style="text;html=1;strokeColor=none;fillColor=none;align=center;verticalAlign=middle;whiteSpace=wrap;rounded=0;fontStyle=1" parent="1" vertex="1">
          <mxGeometry x="-80" y="441.05999999999995" width="100" height="30" as="geometry" />
        </mxCell>
        <mxCell id="aFEut-Nw3Kqnz-RKJ25N-4" value="&lt;font style=&quot;font-size: 15px;&quot;&gt;Model B&lt;br&gt;(Unseen)&lt;br&gt;&lt;/font&gt;" style="text;html=1;strokeColor=none;fillColor=none;align=center;verticalAlign=middle;whiteSpace=wrap;rounded=0;fontStyle=1" parent="1" vertex="1">
          <mxGeometry x="-80" y="500.80999999999995" width="100" height="30" as="geometry" />
        </mxCell>
        <mxCell id="aFEut-Nw3Kqnz-RKJ25N-5" value="" style="rounded=0;whiteSpace=wrap;html=1;dashed=1;fontStyle=1;strokeColor=default;strokeWidth=1;" parent="1" vertex="1">
          <mxGeometry x="30" y="507.81" width="780" height="34" as="geometry" />
        </mxCell>
        <mxCell id="aFEut-Nw3Kqnz-RKJ25N-6" value="" style="rounded=0;whiteSpace=wrap;html=1;dashed=1;fontStyle=1;strokeColor=default;strokeWidth=1;" parent="1" vertex="1">
          <mxGeometry x="30" y="447.81" width="780" height="34" as="geometry" />
        </mxCell>
        <mxCell id="aFEut-Nw3Kqnz-RKJ25N-7" value="&lt;font style=&quot;font-size: 15px;&quot;&gt;A1&lt;/font&gt;" style="rounded=0;whiteSpace=wrap;html=1;fillColor=#fff2cc;strokeColor=#d6b656;fontStyle=1" parent="1" vertex="1">
          <mxGeometry x="50" y="454.80999999999995" width="40" height="20" as="geometry" />
        </mxCell>
        <mxCell id="aFEut-Nw3Kqnz-RKJ25N-8" value="&lt;font style=&quot;font-size: 15px;&quot;&gt;A2&lt;/font&gt;" style="rounded=0;whiteSpace=wrap;html=1;fillColor=#fff2cc;strokeColor=#d6b656;fontStyle=1" parent="1" vertex="1">
          <mxGeometry x="120" y="454.80999999999995" width="40" height="20" as="geometry" />
        </mxCell>
        <mxCell id="aFEut-Nw3Kqnz-RKJ25N-9" value="&lt;font style=&quot;font-size: 15px;&quot;&gt;A3&lt;/font&gt;" style="rounded=0;whiteSpace=wrap;html=1;fillColor=#fff2cc;strokeColor=#d6b656;fontStyle=1" parent="1" vertex="1">
          <mxGeometry x="190" y="455.05999999999995" width="40" height="20" as="geometry" />
        </mxCell>
        <mxCell id="aFEut-Nw3Kqnz-RKJ25N-10" value="&lt;font style=&quot;font-size: 15px;&quot;&gt;A4&lt;/font&gt;" style="rounded=0;whiteSpace=wrap;html=1;fillColor=#fff2cc;strokeColor=#d6b656;fontStyle=1" parent="1" vertex="1">
          <mxGeometry x="300" y="455.05999999999995" width="60" height="20" as="geometry" />
        </mxCell>
        <mxCell id="aFEut-Nw3Kqnz-RKJ25N-17" value="" style="rounded=0;whiteSpace=wrap;html=1;fillColor=#fff2cc;strokeColor=#d6b656;shadow=0;glass=0;fillStyle=zigzag-line;fontStyle=1" parent="1" vertex="1">
          <mxGeometry x="90" y="455.05999999999995" width="30" height="20" as="geometry" />
        </mxCell>
        <mxCell id="aFEut-Nw3Kqnz-RKJ25N-18" value="" style="rounded=0;whiteSpace=wrap;html=1;fillColor=#fff2cc;strokeColor=#d6b656;fillStyle=zigzag-line;fontStyle=1" parent="1" vertex="1">
          <mxGeometry x="160" y="454.80999999999995" width="30" height="20" as="geometry" />
        </mxCell>
        <mxCell id="aFEut-Nw3Kqnz-RKJ25N-19" value="" style="rounded=0;whiteSpace=wrap;html=1;fillColor=#fff2cc;strokeColor=#d6b656;fillStyle=zigzag-line;fontStyle=1" parent="1" vertex="1">
          <mxGeometry x="230" y="455.05999999999995" width="70" height="20" as="geometry" />
        </mxCell>
        <mxCell id="aFEut-Nw3Kqnz-RKJ25N-20" value="" style="rounded=0;whiteSpace=wrap;html=1;fillColor=#fff2cc;strokeColor=#d6b656;fillStyle=zigzag-line;fontStyle=1" parent="1" vertex="1">
          <mxGeometry x="360" y="455.05999999999995" width="20" height="20" as="geometry" />
        </mxCell>
        <mxCell id="aFEut-Nw3Kqnz-RKJ25N-34" value="&lt;font style=&quot;font-size: 20px;&quot;&gt;Current Scheduling Result with Inaccurate Prediction&lt;/font&gt;" style="text;html=1;strokeColor=none;fillColor=none;align=center;verticalAlign=middle;whiteSpace=wrap;rounded=0;rotation=0;fontStyle=1" parent="1" vertex="1">
          <mxGeometry x="-370" y="530.81" width="277" height="30" as="geometry" />
        </mxCell>
        <mxCell id="aFEut-Nw3Kqnz-RKJ25N-46" value="&lt;font style=&quot;font-size: 15px;&quot;&gt;Model C&lt;br&gt;（Unseen)&lt;br&gt;&lt;/font&gt;" style="text;html=1;strokeColor=none;fillColor=none;align=center;verticalAlign=middle;whiteSpace=wrap;rounded=0;fontStyle=1" parent="1" vertex="1">
          <mxGeometry x="-80" y="565.81" width="100" height="30" as="geometry" />
        </mxCell>
        <mxCell id="aFEut-Nw3Kqnz-RKJ25N-47" value="" style="rounded=0;whiteSpace=wrap;html=1;dashed=1;fontStyle=1" parent="1" vertex="1">
          <mxGeometry x="30" y="572.81" width="780" height="34" as="geometry" />
        </mxCell>
        <mxCell id="aFEut-Nw3Kqnz-RKJ25N-48" value="&lt;font style=&quot;font-size: 15px;&quot;&gt;C1&lt;/font&gt;" style="rounded=0;whiteSpace=wrap;html=1;fillColor=#f8cecc;strokeColor=#b85450;fontStyle=1" parent="1" vertex="1">
          <mxGeometry x="50" y="580.94" width="30" height="20" as="geometry" />
        </mxCell>
        <mxCell id="aFEut-Nw3Kqnz-RKJ25N-49" value="&lt;font style=&quot;font-size: 15px;&quot;&gt;C2&lt;/font&gt;" style="rounded=0;whiteSpace=wrap;html=1;fillColor=#f8cecc;strokeColor=#b85450;fontStyle=1" parent="1" vertex="1">
          <mxGeometry x="100" y="580.94" width="30" height="20" as="geometry" />
        </mxCell>
        <mxCell id="aFEut-Nw3Kqnz-RKJ25N-50" value="&lt;font style=&quot;font-size: 15px;&quot;&gt;C3&lt;/font&gt;" style="rounded=0;whiteSpace=wrap;html=1;fillColor=#f8cecc;strokeColor=#b85450;fontStyle=1" parent="1" vertex="1">
          <mxGeometry x="201" y="580.94" width="60" height="20" as="geometry" />
        </mxCell>
        <mxCell id="aFEut-Nw3Kqnz-RKJ25N-52" value="" style="rounded=0;whiteSpace=wrap;html=1;fillColor=#f8cecc;strokeColor=#b85450;fillStyle=zigzag-line;fontStyle=1" parent="1" vertex="1">
          <mxGeometry x="80" y="580.94" width="20" height="20" as="geometry" />
        </mxCell>
        <mxCell id="aFEut-Nw3Kqnz-RKJ25N-53" value="" style="rounded=0;whiteSpace=wrap;html=1;fillColor=#f8cecc;strokeColor=#b85450;fillStyle=zigzag-line;fontStyle=1" parent="1" vertex="1">
          <mxGeometry x="130" y="580.94" width="70" height="20" as="geometry" />
        </mxCell>
        <mxCell id="aFEut-Nw3Kqnz-RKJ25N-55" value="" style="rounded=0;whiteSpace=wrap;html=1;fillColor=#f8cecc;strokeColor=#b85450;fillStyle=zigzag-line;fontStyle=1" parent="1" vertex="1">
          <mxGeometry x="261" y="580.94" width="70" height="20" as="geometry" />
        </mxCell>
        <mxCell id="aFEut-Nw3Kqnz-RKJ25N-79" value="" style="rounded=0;whiteSpace=wrap;html=1;fontStyle=1" parent="1" vertex="1">
          <mxGeometry x="-80" y="739.94" width="640" height="252.06" as="geometry" />
        </mxCell>
        <mxCell id="aFEut-Nw3Kqnz-RKJ25N-81" value="&lt;font style=&quot;font-size: 15px;&quot;&gt;Model A&lt;/font&gt;" style="text;html=1;strokeColor=none;fillColor=none;align=center;verticalAlign=middle;whiteSpace=wrap;rounded=0;fontStyle=1" parent="1" vertex="1">
          <mxGeometry x="-80" y="755.1899999999999" width="100" height="30" as="geometry" />
        </mxCell>
        <mxCell id="aFEut-Nw3Kqnz-RKJ25N-82" value="&lt;font style=&quot;font-size: 15px;&quot;&gt;Model B&lt;br&gt;(Unseen)&lt;br&gt;&lt;/font&gt;" style="text;html=1;strokeColor=none;fillColor=none;align=center;verticalAlign=middle;whiteSpace=wrap;rounded=0;fontStyle=1" parent="1" vertex="1">
          <mxGeometry x="-80" y="814.94" width="100" height="30" as="geometry" />
        </mxCell>
        <mxCell id="aFEut-Nw3Kqnz-RKJ25N-83" value="" style="rounded=0;whiteSpace=wrap;html=1;dashed=1;fontStyle=1" parent="1" vertex="1">
          <mxGeometry x="30" y="812.94" width="520" height="34" as="geometry" />
        </mxCell>
        <mxCell id="aFEut-Nw3Kqnz-RKJ25N-84" value="" style="rounded=0;whiteSpace=wrap;html=1;dashed=1;fontStyle=1" parent="1" vertex="1">
          <mxGeometry x="35" y="753.19" width="515" height="34" as="geometry" />
        </mxCell>
        <mxCell id="aFEut-Nw3Kqnz-RKJ25N-85" value="&lt;font style=&quot;font-size: 15px;&quot;&gt;A1&lt;/font&gt;" style="rounded=0;whiteSpace=wrap;html=1;fillColor=#fff2cc;strokeColor=#d6b656;fontStyle=1" parent="1" vertex="1">
          <mxGeometry x="50" y="759.9399999999999" width="40" height="20" as="geometry" />
        </mxCell>
        <mxCell id="aFEut-Nw3Kqnz-RKJ25N-86" value="&lt;font style=&quot;font-size: 15px;&quot;&gt;A2&lt;/font&gt;" style="rounded=0;whiteSpace=wrap;html=1;fillColor=#fff2cc;strokeColor=#d6b656;fontStyle=1" parent="1" vertex="1">
          <mxGeometry x="101" y="759.9399999999999" width="40" height="20" as="geometry" />
        </mxCell>
        <mxCell id="aFEut-Nw3Kqnz-RKJ25N-87" value="&lt;font style=&quot;font-size: 15px;&quot;&gt;A3&lt;/font&gt;" style="rounded=0;whiteSpace=wrap;html=1;fillColor=#fff2cc;strokeColor=#d6b656;fontStyle=1" parent="1" vertex="1">
          <mxGeometry x="160" y="759.9399999999999" width="40" height="20" as="geometry" />
        </mxCell>
        <mxCell id="aFEut-Nw3Kqnz-RKJ25N-88" value="&lt;font style=&quot;font-size: 15px;&quot;&gt;A4&lt;/font&gt;" style="rounded=0;whiteSpace=wrap;html=1;fillColor=#fff2cc;strokeColor=#d6b656;fontStyle=1" parent="1" vertex="1">
          <mxGeometry x="210" y="760.4399999999999" width="60" height="20" as="geometry" />
        </mxCell>
        <mxCell id="aFEut-Nw3Kqnz-RKJ25N-89" value="&lt;font style=&quot;font-size: 15px;&quot;&gt;B1&lt;/font&gt;" style="rounded=0;whiteSpace=wrap;html=1;fillColor=#dae8fc;strokeColor=#6c8ebf;fontStyle=1" parent="1" vertex="1">
          <mxGeometry x="50" y="819.94" width="30" height="20" as="geometry" />
        </mxCell>
        <mxCell id="aFEut-Nw3Kqnz-RKJ25N-90" value="&lt;font style=&quot;font-size: 15px;&quot;&gt;B2&lt;/font&gt;" style="rounded=0;whiteSpace=wrap;html=1;fillColor=#dae8fc;strokeColor=#6c8ebf;fontStyle=1" parent="1" vertex="1">
          <mxGeometry x="121" y="819.94" width="30" height="20" as="geometry" />
        </mxCell>
        <mxCell id="aFEut-Nw3Kqnz-RKJ25N-91" value="&lt;font style=&quot;font-size: 15px;&quot;&gt;B3&lt;/font&gt;" style="rounded=0;whiteSpace=wrap;html=1;fillColor=#dae8fc;strokeColor=#6c8ebf;fontStyle=1" parent="1" vertex="1">
          <mxGeometry x="180" y="819.94" width="60" height="20" as="geometry" />
        </mxCell>
        <mxCell id="aFEut-Nw3Kqnz-RKJ25N-95" value="" style="rounded=0;whiteSpace=wrap;html=1;fillColor=#fff2cc;strokeColor=#d6b656;shadow=0;glass=0;fillStyle=zigzag-line;fontStyle=1" parent="1" vertex="1">
          <mxGeometry x="90" y="760.19" width="10" height="20" as="geometry" />
        </mxCell>
        <mxCell id="aFEut-Nw3Kqnz-RKJ25N-96" value="" style="rounded=0;whiteSpace=wrap;html=1;fillColor=#fff2cc;strokeColor=#d6b656;fillStyle=zigzag-line;fontStyle=1" parent="1" vertex="1">
          <mxGeometry x="141" y="759.9399999999999" width="20" height="20" as="geometry" />
        </mxCell>
        <mxCell id="aFEut-Nw3Kqnz-RKJ25N-97" value="" style="rounded=0;whiteSpace=wrap;html=1;fillColor=#fff2cc;strokeColor=#d6b656;fillStyle=zigzag-line;fontStyle=1" parent="1" vertex="1">
          <mxGeometry x="199.91" y="760.44" width="10.09" height="20" as="geometry" />
        </mxCell>
        <mxCell id="aFEut-Nw3Kqnz-RKJ25N-99" value="" style="rounded=0;whiteSpace=wrap;html=1;fillColor=#dae8fc;strokeColor=#6c8ebf;fillStyle=zigzag-line;fontStyle=1" parent="1" vertex="1">
          <mxGeometry x="80" y="819.94" width="40" height="20" as="geometry" />
        </mxCell>
        <mxCell id="aFEut-Nw3Kqnz-RKJ25N-100" value="" style="rounded=0;whiteSpace=wrap;html=1;fillColor=#dae8fc;strokeColor=#6c8ebf;fillStyle=zigzag-line;fontStyle=1" parent="1" vertex="1">
          <mxGeometry x="150.82" y="819.94" width="29.18" height="20" as="geometry" />
        </mxCell>
        <mxCell id="aFEut-Nw3Kqnz-RKJ25N-102" value="" style="rounded=0;whiteSpace=wrap;html=1;fillColor=#dae8fc;strokeColor=#6c8ebf;fillStyle=zigzag-line;fontStyle=1" parent="1" vertex="1">
          <mxGeometry x="241" y="819.94" width="30" height="20" as="geometry" />
        </mxCell>
        <mxCell id="aFEut-Nw3Kqnz-RKJ25N-110" value="&lt;font style=&quot;font-size: 20px;&quot;&gt;Optimal Scheduling Result with Accurate Prediction&lt;/font&gt;" style="text;html=1;strokeColor=none;fillColor=none;align=center;verticalAlign=middle;whiteSpace=wrap;rounded=0;rotation=0;fontStyle=1" parent="1" vertex="1">
          <mxGeometry x="-370" y="844.94" width="272.5" height="30" as="geometry" />
        </mxCell>
        <mxCell id="aFEut-Nw3Kqnz-RKJ25N-111" value="&lt;font style=&quot;font-size: 15px;&quot;&gt;Model C&lt;br&gt;(Unseen)&lt;br&gt;&lt;/font&gt;" style="text;html=1;strokeColor=none;fillColor=none;align=center;verticalAlign=middle;whiteSpace=wrap;rounded=0;fontStyle=1" parent="1" vertex="1">
          <mxGeometry x="-78" y="880.94" width="100" height="30" as="geometry" />
        </mxCell>
        <mxCell id="aFEut-Nw3Kqnz-RKJ25N-112" value="" style="rounded=0;whiteSpace=wrap;html=1;dashed=1;fontStyle=1" parent="1" vertex="1">
          <mxGeometry x="30" y="877.94" width="520" height="34" as="geometry" />
        </mxCell>
        <mxCell id="aFEut-Nw3Kqnz-RKJ25N-113" value="&lt;font style=&quot;font-size: 15px;&quot;&gt;C1&lt;/font&gt;" style="rounded=0;whiteSpace=wrap;html=1;fillColor=#f8cecc;strokeColor=#b85450;fontStyle=1" parent="1" vertex="1">
          <mxGeometry x="281.75" y="884.94" width="30" height="20" as="geometry" />
        </mxCell>
        <mxCell id="aFEut-Nw3Kqnz-RKJ25N-114" value="&lt;font style=&quot;font-size: 15px;&quot;&gt;C2&lt;/font&gt;" style="rounded=0;whiteSpace=wrap;html=1;fillColor=#f8cecc;strokeColor=#b85450;fontStyle=1" parent="1" vertex="1">
          <mxGeometry x="330.75" y="884.94" width="30" height="20" as="geometry" />
        </mxCell>
        <mxCell id="aFEut-Nw3Kqnz-RKJ25N-115" value="&lt;font style=&quot;font-size: 15px;&quot;&gt;C3&lt;/font&gt;" style="rounded=0;whiteSpace=wrap;html=1;fillColor=#f8cecc;strokeColor=#b85450;fontStyle=1" parent="1" vertex="1">
          <mxGeometry x="392.75" y="884.94" width="60" height="20" as="geometry" />
        </mxCell>
        <mxCell id="aFEut-Nw3Kqnz-RKJ25N-116" value="" style="rounded=0;whiteSpace=wrap;html=1;fillColor=#f8cecc;strokeColor=#b85450;fillStyle=zigzag-line;fontStyle=1" parent="1" vertex="1">
          <mxGeometry x="311.75" y="884.94" width="18.25" height="20" as="geometry" />
        </mxCell>
        <mxCell id="aFEut-Nw3Kqnz-RKJ25N-117" value="" style="rounded=0;whiteSpace=wrap;html=1;fillColor=#f8cecc;strokeColor=#b85450;fillStyle=zigzag-line;fontStyle=1" parent="1" vertex="1">
          <mxGeometry x="360.75" y="884.94" width="32.25" height="20" as="geometry" />
        </mxCell>
        <mxCell id="aFEut-Nw3Kqnz-RKJ25N-118" value="" style="rounded=0;whiteSpace=wrap;html=1;fillColor=#f8cecc;strokeColor=#b85450;fillStyle=zigzag-line;fontStyle=1" parent="1" vertex="1">
          <mxGeometry x="452.82" y="884.94" width="21.18" height="20" as="geometry" />
        </mxCell>
        <mxCell id="1enAks9yBNtXk0IQrdcj-2" value="A1" style="rounded=0;whiteSpace=wrap;html=1;fillColor=#fff2cc;strokeColor=#d6b656;fontStyle=1" parent="1" vertex="1">
          <mxGeometry x="236.43" y="330" width="30" height="20" as="geometry" />
        </mxCell>
        <mxCell id="1enAks9yBNtXk0IQrdcj-4" value="B1" style="rounded=0;whiteSpace=wrap;html=1;fillColor=#dae8fc;strokeColor=#6c8ebf;fontStyle=1" parent="1" vertex="1">
          <mxGeometry x="236.43" y="355.99999999999994" width="30" height="20" as="geometry" />
        </mxCell>
        <mxCell id="1enAks9yBNtXk0IQrdcj-5" value="" style="rounded=0;whiteSpace=wrap;html=1;fillColor=#fff2cc;strokeColor=#d6b656;shadow=0;glass=0;fillStyle=zigzag-line;fontStyle=1" parent="1" vertex="1">
          <mxGeometry x="266.68" y="330" width="30" height="20" as="geometry" />
        </mxCell>
        <mxCell id="1enAks9yBNtXk0IQrdcj-7" value="" style="rounded=0;whiteSpace=wrap;html=1;fillColor=#dae8fc;strokeColor=#6c8ebf;fillStyle=zigzag-line;fontStyle=1" parent="1" vertex="1">
          <mxGeometry x="266.68" y="356" width="30" height="20" as="geometry" />
        </mxCell>
        <mxCell id="1enAks9yBNtXk0IQrdcj-8" value="&lt;font style=&quot;font-size: 15px;&quot;&gt;Resource Contention Overhead&lt;/font&gt;" style="text;html=1;strokeColor=none;fillColor=none;align=center;verticalAlign=middle;whiteSpace=wrap;rounded=0;fontStyle=1" parent="1" vertex="1">
          <mxGeometry x="-38.19" y="339" width="167.5" height="30" as="geometry" />
        </mxCell>
        <mxCell id="URHiBeIzrlBPaXmU1U8u-2" value="&lt;font style=&quot;font-size: 15px;&quot;&gt;Deadline A: 3&lt;br&gt;&lt;/font&gt;" style="text;html=1;strokeColor=none;fillColor=none;align=center;verticalAlign=middle;whiteSpace=wrap;rounded=0;fontStyle=1" parent="1" vertex="1">
          <mxGeometry x="230" y="1012" width="117.75" height="30" as="geometry" />
        </mxCell>
        <mxCell id="9vteJf4cT2fO9NjOlLXd-23" value="&lt;font style=&quot;font-size: 15px;&quot;&gt;Model D&lt;/font&gt;" style="text;html=1;strokeColor=none;fillColor=none;align=center;verticalAlign=middle;whiteSpace=wrap;rounded=0;fontStyle=1" parent="1" vertex="1">
          <mxGeometry x="-80" y="628" width="100" height="30" as="geometry" />
        </mxCell>
        <mxCell id="9vteJf4cT2fO9NjOlLXd-24" value="" style="rounded=0;whiteSpace=wrap;html=1;dashed=1;fontStyle=1;strokeColor=default;strokeWidth=1;" parent="1" vertex="1">
          <mxGeometry x="30" y="635" width="780" height="34" as="geometry" />
        </mxCell>
        <mxCell id="9vteJf4cT2fO9NjOlLXd-32" value="&lt;font style=&quot;font-size: 15px;&quot;&gt;D1&lt;/font&gt;" style="rounded=0;whiteSpace=wrap;html=1;fillColor=#d5e8d4;strokeColor=#82b366;fontStyle=1" parent="1" vertex="1">
          <mxGeometry x="380" y="643" width="30" height="20" as="geometry" />
        </mxCell>
        <mxCell id="9vteJf4cT2fO9NjOlLXd-33" value="&lt;font style=&quot;font-size: 15px;&quot;&gt;D2&lt;/font&gt;" style="rounded=0;whiteSpace=wrap;html=1;fillColor=#d5e8d4;strokeColor=#82b366;fontStyle=1" parent="1" vertex="1">
          <mxGeometry x="480" y="643" width="30" height="20" as="geometry" />
        </mxCell>
        <mxCell id="9vteJf4cT2fO9NjOlLXd-34" value="&lt;font style=&quot;font-size: 15px;&quot;&gt;D3&lt;/font&gt;" style="rounded=0;whiteSpace=wrap;html=1;fillColor=#d5e8d4;strokeColor=#82b366;fontStyle=1" parent="1" vertex="1">
          <mxGeometry x="561" y="643" width="60" height="20" as="geometry" />
        </mxCell>
        <mxCell id="9vteJf4cT2fO9NjOlLXd-35" value="&lt;font style=&quot;font-size: 15px;&quot;&gt;D4&lt;/font&gt;" style="rounded=0;whiteSpace=wrap;html=1;fillColor=#d5e8d4;strokeColor=#82b366;fontStyle=1" parent="1" vertex="1">
          <mxGeometry x="671" y="643" width="50" height="20" as="geometry" />
        </mxCell>
        <mxCell id="9vteJf4cT2fO9NjOlLXd-36" value="" style="rounded=0;whiteSpace=wrap;html=1;fillColor=#d5e8d4;strokeColor=#82b366;fillStyle=zigzag-line;fontStyle=1" parent="1" vertex="1">
          <mxGeometry x="410" y="643" width="70" height="20" as="geometry" />
        </mxCell>
        <mxCell id="9vteJf4cT2fO9NjOlLXd-37" value="" style="rounded=0;whiteSpace=wrap;html=1;fillColor=#d5e8d4;strokeColor=#82b366;fillStyle=zigzag-line;fontStyle=1" parent="1" vertex="1">
          <mxGeometry x="511" y="643" width="50" height="20" as="geometry" />
        </mxCell>
        <mxCell id="9vteJf4cT2fO9NjOlLXd-38" value="" style="rounded=0;whiteSpace=wrap;html=1;fillColor=#d5e8d4;strokeColor=#82b366;fillStyle=zigzag-line;fontStyle=1" parent="1" vertex="1">
          <mxGeometry x="621" y="643" width="50" height="20" as="geometry" />
        </mxCell>
        <mxCell id="9vteJf4cT2fO9NjOlLXd-39" value="&lt;font style=&quot;font-size: 15px;&quot;&gt;B1&lt;/font&gt;" style="rounded=0;whiteSpace=wrap;html=1;fillColor=#dae8fc;strokeColor=#6c8ebf;fontStyle=1" parent="1" vertex="1">
          <mxGeometry x="380" y="514.81" width="30" height="20" as="geometry" />
        </mxCell>
        <mxCell id="9vteJf4cT2fO9NjOlLXd-40" value="&lt;font style=&quot;font-size: 15px;&quot;&gt;B2&lt;/font&gt;" style="rounded=0;whiteSpace=wrap;html=1;fillColor=#dae8fc;strokeColor=#6c8ebf;fontStyle=1" parent="1" vertex="1">
          <mxGeometry x="480" y="514.81" width="30" height="20" as="geometry" />
        </mxCell>
        <mxCell id="9vteJf4cT2fO9NjOlLXd-41" value="&lt;font style=&quot;font-size: 15px;&quot;&gt;B3&lt;/font&gt;" style="rounded=0;whiteSpace=wrap;html=1;fillColor=#dae8fc;strokeColor=#6c8ebf;fontStyle=1" parent="1" vertex="1">
          <mxGeometry x="580" y="514.81" width="60" height="20" as="geometry" />
        </mxCell>
        <mxCell id="9vteJf4cT2fO9NjOlLXd-42" value="" style="rounded=0;whiteSpace=wrap;html=1;fillColor=#dae8fc;strokeColor=#6c8ebf;fillStyle=zigzag-line;fontStyle=1" parent="1" vertex="1">
          <mxGeometry x="410" y="514.81" width="70" height="20" as="geometry" />
        </mxCell>
        <mxCell id="9vteJf4cT2fO9NjOlLXd-43" value="" style="rounded=0;whiteSpace=wrap;html=1;fillColor=#dae8fc;strokeColor=#6c8ebf;fillStyle=zigzag-line;fontStyle=1" parent="1" vertex="1">
          <mxGeometry x="510" y="514.81" width="70" height="20" as="geometry" />
        </mxCell>
        <mxCell id="9vteJf4cT2fO9NjOlLXd-44" value="" style="rounded=0;whiteSpace=wrap;html=1;fillColor=#dae8fc;strokeColor=#6c8ebf;fillStyle=zigzag-line;fontStyle=1" parent="1" vertex="1">
          <mxGeometry x="640" y="514.81" width="110" height="20" as="geometry" />
        </mxCell>
        <mxCell id="9vteJf4cT2fO9NjOlLXd-45" value="&lt;font style=&quot;font-size: 15px;&quot;&gt;Model D&lt;/font&gt;" style="text;html=1;strokeColor=none;fillColor=none;align=center;verticalAlign=middle;whiteSpace=wrap;rounded=0;fontStyle=1" parent="1" vertex="1">
          <mxGeometry x="-80" y="942" width="100" height="30" as="geometry" />
        </mxCell>
        <mxCell id="9vteJf4cT2fO9NjOlLXd-46" value="" style="rounded=0;whiteSpace=wrap;html=1;dashed=1;fontStyle=1" parent="1" vertex="1">
          <mxGeometry x="30" y="940" width="520" height="34" as="geometry" />
        </mxCell>
        <mxCell id="9vteJf4cT2fO9NjOlLXd-47" value="&lt;font style=&quot;font-size: 15px;&quot;&gt;D1&lt;/font&gt;" style="rounded=0;whiteSpace=wrap;html=1;fillColor=#d5e8d4;strokeColor=#82b366;fontStyle=1" parent="1" vertex="1">
          <mxGeometry x="282" y="948" width="30" height="20" as="geometry" />
        </mxCell>
        <mxCell id="9vteJf4cT2fO9NjOlLXd-48" value="&lt;font style=&quot;font-size: 15px;&quot;&gt;D2&lt;/font&gt;" style="rounded=0;whiteSpace=wrap;html=1;fillColor=#d5e8d4;strokeColor=#82b366;fontStyle=1" parent="1" vertex="1">
          <mxGeometry x="360" y="948" width="30" height="20" as="geometry" />
        </mxCell>
        <mxCell id="9vteJf4cT2fO9NjOlLXd-49" value="&lt;font style=&quot;font-size: 15px;&quot;&gt;D3&lt;/font&gt;" style="rounded=0;whiteSpace=wrap;html=1;fillColor=#d5e8d4;strokeColor=#82b366;fontStyle=1" parent="1" vertex="1">
          <mxGeometry x="410" y="948" width="60" height="20" as="geometry" />
        </mxCell>
        <mxCell id="9vteJf4cT2fO9NjOlLXd-50" value="&lt;font style=&quot;font-size: 15px;&quot;&gt;D4&lt;/font&gt;" style="rounded=0;whiteSpace=wrap;html=1;fillColor=#d5e8d4;strokeColor=#82b366;fontStyle=1" parent="1" vertex="1">
          <mxGeometry x="490" y="948" width="50" height="20" as="geometry" />
        </mxCell>
        <mxCell id="9vteJf4cT2fO9NjOlLXd-51" value="" style="rounded=0;whiteSpace=wrap;html=1;fillColor=#d5e8d4;strokeColor=#82b366;fillStyle=zigzag-line;fontStyle=1" parent="1" vertex="1">
          <mxGeometry x="312" y="948" width="48" height="20" as="geometry" />
        </mxCell>
        <mxCell id="9vteJf4cT2fO9NjOlLXd-52" value="" style="rounded=0;whiteSpace=wrap;html=1;fillColor=#d5e8d4;strokeColor=#82b366;fillStyle=zigzag-line;fontStyle=1" parent="1" vertex="1">
          <mxGeometry x="390" y="948" width="20" height="20" as="geometry" />
        </mxCell>
        <mxCell id="9vteJf4cT2fO9NjOlLXd-53" value="" style="rounded=0;whiteSpace=wrap;html=1;fillColor=#d5e8d4;strokeColor=#82b366;fillStyle=zigzag-line;fontStyle=1" parent="1" vertex="1">
          <mxGeometry x="470" y="948" width="20" height="20" as="geometry" />
        </mxCell>
        <mxCell id="9vteJf4cT2fO9NjOlLXd-55" value="" style="rounded=0;whiteSpace=wrap;html=1;fillColor=#fff2cc;strokeColor=#d6b656;fillStyle=zigzag-line;fontStyle=1" parent="1" vertex="1">
          <mxGeometry x="271" y="760.44" width="10.09" height="20" as="geometry" />
        </mxCell>
        <mxCell id="9vteJf4cT2fO9NjOlLXd-57" value="" style="endArrow=none;dashed=1;html=1;dashPattern=1 3;strokeWidth=2;rounded=0;" parent="1" edge="1">
          <mxGeometry width="50" height="50" relative="1" as="geometry">
            <mxPoint x="50" y="862" as="sourcePoint" />
            <mxPoint x="50" y="722.25" as="targetPoint" />
          </mxGeometry>
        </mxCell>
        <mxCell id="9vteJf4cT2fO9NjOlLXd-58" value="" style="endArrow=none;dashed=1;html=1;dashPattern=1 3;strokeWidth=2;rounded=0;entryX=0.546;entryY=1.167;entryDx=0;entryDy=0;entryPerimeter=0;" parent="1" edge="1">
          <mxGeometry width="50" height="50" relative="1" as="geometry">
            <mxPoint x="281" y="984.69" as="sourcePoint" />
            <mxPoint x="281.15999999999985" y="727.2" as="targetPoint" />
          </mxGeometry>
        </mxCell>
        <mxCell id="9vteJf4cT2fO9NjOlLXd-59" value="" style="endArrow=none;dashed=1;html=1;dashPattern=1 3;strokeWidth=2;rounded=0;" parent="1" edge="1">
          <mxGeometry width="50" height="50" relative="1" as="geometry">
            <mxPoint x="50" y="625" as="sourcePoint" />
            <mxPoint x="50" y="435" as="targetPoint" />
          </mxGeometry>
        </mxCell>
        <mxCell id="9vteJf4cT2fO9NjOlLXd-61" value="" style="endArrow=none;dashed=1;html=1;dashPattern=1 3;strokeWidth=2;rounded=0;entryX=0.546;entryY=1.167;entryDx=0;entryDy=0;entryPerimeter=0;" parent="1" edge="1">
          <mxGeometry width="50" height="50" relative="1" as="geometry">
            <mxPoint x="380" y="686" as="sourcePoint" />
            <mxPoint x="380" y="428.31" as="targetPoint" />
          </mxGeometry>
        </mxCell>
        <mxCell id="URHiBeIzrlBPaXmU1U8u-1" value="" style="endArrow=none;html=1;rounded=0;strokeWidth=3;strokeColor=#FF3333;" parent="1" edge="1">
          <mxGeometry width="50" height="50" relative="1" as="geometry">
            <mxPoint x="562" y="1010" as="sourcePoint" />
            <mxPoint x="562" y="400" as="targetPoint" />
          </mxGeometry>
        </mxCell>
        <mxCell id="9vteJf4cT2fO9NjOlLXd-21" value="" style="endArrow=none;html=1;rounded=0;strokeWidth=3;strokeColor=#6c8ebf;fillColor=#dae8fc;" parent="1" edge="1">
          <mxGeometry width="50" height="50" relative="1" as="geometry">
            <mxPoint x="426" y="1000" as="sourcePoint" />
            <mxPoint x="426" y="400" as="targetPoint" />
          </mxGeometry>
        </mxCell>
        <mxCell id="9vteJf4cT2fO9NjOlLXd-22" value="" style="endArrow=none;html=1;rounded=0;strokeWidth=3;strokeColor=#82b366;fillColor=#d5e8d4;" parent="1" edge="1">
          <mxGeometry width="50" height="50" relative="1" as="geometry">
            <mxPoint x="724" y="1010" as="sourcePoint" />
            <mxPoint x="724" y="400" as="targetPoint" />
          </mxGeometry>
        </mxCell>
        <mxCell id="9vteJf4cT2fO9NjOlLXd-63" value="&lt;font style=&quot;font-size: 15px;&quot;&gt;Deadline C: 5&lt;br&gt;&lt;/font&gt;" style="text;html=1;strokeColor=none;fillColor=none;align=center;verticalAlign=middle;whiteSpace=wrap;rounded=0;fontStyle=1" parent="1" vertex="1">
          <mxGeometry x="490" y="1012" width="117.75" height="30" as="geometry" />
        </mxCell>
        <mxCell id="9vteJf4cT2fO9NjOlLXd-64" value="&lt;font style=&quot;font-size: 15px;&quot;&gt;Deadline D: 6&lt;br&gt;&lt;/font&gt;" style="text;html=1;strokeColor=none;fillColor=none;align=center;verticalAlign=middle;whiteSpace=wrap;rounded=0;fontStyle=1" parent="1" vertex="1">
          <mxGeometry x="650" y="1012" width="117.75" height="30" as="geometry" />
        </mxCell>
        <mxCell id="9vteJf4cT2fO9NjOlLXd-65" value="&lt;font style=&quot;font-size: 15px;&quot;&gt;Deadline B: 4&lt;br&gt;&lt;/font&gt;" style="text;html=1;strokeColor=none;fillColor=none;align=center;verticalAlign=middle;whiteSpace=wrap;rounded=0;fontStyle=1" parent="1" vertex="1">
          <mxGeometry x="362.25" y="1012" width="117.75" height="30" as="geometry" />
        </mxCell>
        <mxCell id="9vteJf4cT2fO9NjOlLXd-77" value="" style="endArrow=none;html=1;rounded=0;dashed=1;strokeWidth=2;" parent="1" edge="1">
          <mxGeometry width="50" height="50" relative="1" as="geometry">
            <mxPoint x="-280" y="710" as="sourcePoint" />
            <mxPoint x="700" y="710" as="targetPoint" />
          </mxGeometry>
        </mxCell>
        <mxCell id="9vteJf4cT2fO9NjOlLXd-78" value="" style="rounded=1;whiteSpace=wrap;html=1;fillColor=none;strokeColor=#FF2A00;strokeWidth=3;points=[];" parent="1" vertex="1">
          <mxGeometry x="280" y="435.06" width="110" height="60" as="geometry" />
        </mxCell>
        <mxCell id="9vteJf4cT2fO9NjOlLXd-20" value="" style="endArrow=none;html=1;strokeWidth=3;strokeColor=#d6b656;fillColor=#fff2cc;jumpStyle=none;rounded=0;" parent="1" edge="1">
          <mxGeometry width="50" height="50" relative="1" as="geometry">
            <mxPoint x="290" y="1010" as="sourcePoint" />
            <mxPoint x="290" y="400" as="targetPoint" />
          </mxGeometry>
        </mxCell>
        <mxCell id="9vteJf4cT2fO9NjOlLXd-83" value="" style="rounded=1;whiteSpace=wrap;html=1;fillColor=none;strokeColor=#FF2A00;strokeWidth=3;points=[];" parent="1" vertex="1">
          <mxGeometry x="414" y="495.06" width="346" height="60" as="geometry" />
        </mxCell>
        <mxCell id="9vteJf4cT2fO9NjOlLXd-85" value="" style="rounded=1;whiteSpace=wrap;html=1;fillColor=none;strokeColor=#FF2A00;strokeWidth=3;points=[];" parent="1" vertex="1">
          <mxGeometry x="430.43" y="336" width="33.5" height="32" as="geometry" />
        </mxCell>
        <mxCell id="9vteJf4cT2fO9NjOlLXd-86" value="&lt;font style=&quot;font-size: 15px;&quot;&gt;SLA Violation&lt;br&gt;&lt;/font&gt;" style="text;html=1;strokeColor=none;fillColor=none;align=center;verticalAlign=middle;whiteSpace=wrap;rounded=0;fontStyle=1" parent="1" vertex="1">
          <mxGeometry x="484.43" y="338" width="117.75" height="30" as="geometry" />
        </mxCell>
        <mxCell id="9vteJf4cT2fO9NjOlLXd-88" value="&lt;font style=&quot;font-size: 20px;&quot;&gt;(No SLA Violation)&lt;/font&gt;" style="text;html=1;strokeColor=none;fillColor=none;align=center;verticalAlign=middle;whiteSpace=wrap;rounded=0;rotation=0;fontStyle=1" parent="1" vertex="1">
          <mxGeometry x="-298" y="930" width="210" height="30" as="geometry" />
        </mxCell>
        <mxCell id="9vteJf4cT2fO9NjOlLXd-89" value="&lt;font style=&quot;font-size: 20px;&quot;&gt;(75% SLA Violation)&lt;/font&gt;" style="text;html=1;strokeColor=none;fillColor=none;align=center;verticalAlign=middle;whiteSpace=wrap;rounded=0;rotation=0;fontStyle=1" parent="1" vertex="1">
          <mxGeometry x="-298" y="624" width="210" height="30" as="geometry" />
        </mxCell>
        <mxCell id="kdyFymqt3PN262G9pU9j-2" value="" style="rounded=0;whiteSpace=wrap;html=1;fillColor=#d5e8d4;strokeColor=#82b366;fillStyle=zigzag-line;fontStyle=1" parent="1" vertex="1">
          <mxGeometry x="721" y="643" width="79" height="20" as="geometry" />
        </mxCell>
        <mxCell id="Ii98x0oI9SETLwAOHH_v-1" value="" style="rounded=1;whiteSpace=wrap;html=1;fillColor=none;strokeColor=#FF2A00;strokeWidth=3;points=[];" parent="1" vertex="1">
          <mxGeometry x="710" y="622" width="100" height="60" as="geometry" />
        </mxCell>
      </root>
    </mxGraphModel>
  </diagram>
</mxfile>
